<?xml version="1.0" encoding="utf-8"?>
<!-- Generator: Adobe Illustrator 16.0.0, SVG Export Plug-In . SVG Version: 6.00 Build 0)  -->
<!DOCTYPE svg PUBLIC "-//W3C//DTD SVG 1.1//EN" "http://www.w3.org/Graphics/SVG/1.1/DTD/svg11.dtd">
<svg version="1.1" id="레이어_1" xmlns="http://www.w3.org/2000/svg" xmlns:xlink="http://www.w3.org/1999/xlink" x="0px"
	 y="0px" width="1173px" height="1713.502px" viewBox="0 0 1173 1713.502" enable-background="new 0 0 1173 1713.502"
	 xml:space="preserve">
<polygon opacity="0.1" fill="#FFFFFF" points="586.481,1640.133 586.481,-446.985 2933.905,-446.985 "/>
<g>
	<path fill="#E0E1E2" d="M587.765,1502.012c92.363,0,167.244,74.875,167.244,167.242c0,92.359-74.881,167.238-167.244,167.238
		s-167.238-74.879-167.238-167.238C420.526,1576.887,495.401,1502.012,587.765,1502.012z"/>
	<circle fill="#FFFFFF" cx="587.765" cy="1669.251" r="96.483"/>
	<path fill="#414A5F" d="M484.849,1849.358c-1.645,0-3.293-0.631-4.547-1.887c-2.516-2.516-2.516-6.576,0-9.094l25.299-25.299
		c2.515-2.516,6.579-2.516,9.094,0c2.517,2.516,2.517,6.578,0,9.094l-25.297,25.299
		C488.142,1848.727,486.497,1849.358,484.849,1849.358z"/>
	<path fill="#414A5F" d="M690.683,1849.358c-1.645,0-3.293-0.631-4.547-1.887l-25.492-25.49c-2.515-2.514-2.515-6.582,0-9.096
		c2.515-2.516,6.581-2.516,9.096,0l25.49,25.492c2.516,2.518,2.516,6.578,0,9.094
		C693.979,1848.727,692.326,1849.358,690.683,1849.358z"/>
	<path fill="#C7CAC7" d="M704.153,1554.846c-1.648,0-3.295-0.631-4.549-1.883c-2.514-2.516-2.514-6.582,0-9.096l19.297-19.299
		c2.516-2.516,6.582-2.516,9.098,0c2.512,2.514,2.512,6.582,0,9.096l-19.299,19.299
		C707.439,1554.223,705.794,1554.846,704.153,1554.846z"/>
	<path fill="#C7CAC7" d="M471.388,1554.846c-1.648,0-3.293-0.631-4.549-1.883l-19.297-19.299c-2.514-2.514-2.514-6.582,0-9.096
		c2.516-2.516,6.58-2.516,9.096,0l19.297,19.299c2.514,2.514,2.514,6.58,0,9.096
		C474.681,1554.223,473.032,1554.846,471.388,1554.846z"/>
	<path fill="#FFFFFF" d="M587.765,1849.358c-99.308,0-180.103-80.799-180.103-180.104c0-99.311,80.795-180.107,180.103-180.107
		c99.309,0,180.105,80.797,180.105,180.107C767.87,1768.559,687.08,1849.358,587.765,1849.358z M587.765,1514.875
		c-85.123,0-154.373,69.258-154.373,154.379c0,85.117,69.25,154.373,154.373,154.373c85.125,0,154.375-69.256,154.375-154.373
		C742.14,1584.133,672.89,1514.875,587.765,1514.875z"/>
	<g>
		<path fill="#2F95D3" d="M587.765,1520.53c-3.549,0-6.43,2.875-6.43,6.434v6.434c0,3.557,2.881,6.428,6.43,6.428
			c3.552,0,6.436-2.871,6.436-6.428v-6.434C594.2,1523.405,591.323,1520.53,587.765,1520.53z"/>
		<path fill="#2F95D3" d="M587.765,1797.12c-3.549,0-6.43,2.875-6.43,6.432v6.434c0,3.557,2.881,6.432,6.43,6.432
			c3.552,0,6.436-2.875,6.436-6.432v-6.434C594.2,1799.995,591.323,1797.12,587.765,1797.12z"/>
		<path fill="#2F95D3" d="M729.275,1662.042h-6.433c-3.547,0-6.43,2.873-6.43,6.432c0,3.557,2.883,6.434,6.43,6.434h6.433
			c3.554,0,6.437-2.877,6.437-6.434C735.712,1664.915,732.835,1662.042,729.275,1662.042z"/>
		<path fill="#2F95D3" d="M452.688,1662.042h-6.433c-3.551,0-6.432,2.873-6.432,6.432c0,3.557,2.881,6.434,6.432,6.434h6.433
			c3.552,0,6.433-2.877,6.433-6.434C459.12,1664.915,456.243,1662.042,452.688,1662.042z"/>
		<path fill="#2F95D3" d="M683.278,1563.858l-4.546,4.549c-2.515,2.516-2.515,6.58,0,9.098c1.254,1.254,2.899,1.883,4.546,1.883
			s3.295-0.629,4.549-1.883l4.547-4.549c2.518-2.516,2.518-6.582,0-9.098C689.86,1561.344,685.794,1561.344,683.278,1563.858z"/>
		<path fill="#2F95D3" d="M487.704,1759.44l-4.549,4.547c-2.512,2.516-2.512,6.578,0,9.096c1.257,1.254,2.903,1.885,4.549,1.885
			c1.647,0,3.294-0.631,4.55-1.885l4.547-4.549c2.515-2.514,2.515-6.578,0-9.094C494.284,1756.924,490.22,1756.93,487.704,1759.44z"
			/>
		<path fill="#2F95D3" d="M687.827,1759.44c-2.517-2.516-6.58-2.516-9.095,0s-2.515,6.58,0,9.094l4.546,4.549
			c1.257,1.254,2.902,1.885,4.549,1.885c1.645,0,3.293-0.631,4.547-1.885c2.518-2.518,2.518-6.58,0-9.096L687.827,1759.44z"/>
		<path fill="#2F95D3" d="M492.254,1563.858c-2.517-2.514-6.581-2.514-9.099,0c-2.512,2.516-2.512,6.582,0,9.098l4.549,4.549
			c1.257,1.254,2.901,1.883,4.55,1.883c1.645,0,3.293-0.629,4.547-1.883c2.515-2.518,2.515-6.582,0-9.098L492.254,1563.858z"/>
	</g>
	<path fill="#414A5F" d="M594.2,1598.497v51.459c0,3.551-2.877,6.434-6.433,6.434s-6.433-2.883-6.433-6.434v-51.459
		c0-3.549,2.877-6.432,6.433-6.432S594.2,1594.938,594.2,1598.497z"/>
	<path fill="#414A5F" d="M597.406,1660.157c-2.509-2.51-2.515-6.582,0.003-9.098l50.033-50.031c2.514-2.516,6.584-2.51,9.092,0
		c2.511,2.51,2.518,6.58,0,9.096l-50.031,50.031C603.99,1662.668,599.921,1662.672,597.406,1660.157z"/>
	<path fill="#414A5F" d="M587.765,1694.983c-14.188,0-25.729-11.541-25.729-25.729c0-14.191,11.541-25.732,25.729-25.732
		c14.191,0,25.731,11.541,25.731,25.732C613.496,1683.442,601.956,1694.983,587.765,1694.983z M587.765,1656.389
		c-7.094,0-12.863,5.768-12.863,12.865c0,7.092,5.77,12.861,12.863,12.861c7.098,0,12.867-5.77,12.867-12.861
		C600.632,1662.157,594.862,1656.389,587.765,1656.389z"/>
	<path fill="#E7EBEC" d="M754.456,1495.122c17.889,17.889,17.889,46.893,0,64.783l-64.784-64.783
		C707.567,1477.235,736.564,1477.235,754.456,1495.122z"/>
	<path fill="#E7EBEC" d="M421.079,1495.122c-17.889,17.889-17.889,46.893,0,64.783l64.779-64.783
		C467.97,1477.235,438.968,1477.235,421.079,1495.122z"/>
</g>
<g>
	<g>
		<path fill-rule="evenodd" clip-rule="evenodd" fill="#D4DAEA" d="M453.567,1322.26c-2.764-0.418-5.333-1.432-7.854-2.588
			c0-0.291,0-0.582,0-0.873c0.192-0.27,0.385-0.539,0.577-0.809c-0.192-0.021-0.385-0.043-0.577-0.063c0-0.582,0-1.164,0-1.746
			c1.808,0.623,1.448-0.854,1.779-1.77c5.064-13.943,10.243-27.846,15.166-41.84c1.016-2.891,2.023-3.381,4.845-2.201
			c6.363,2.66,12.892,4.928,19.354,7.354c-10.149,9.027-19.443,18.926-28.909,28.641c-2.462,2.525-3.962,6.051-3.513,9.938
			C454.673,1318.364,454.055,1320.303,453.567,1322.26z"/>
		<path fill-rule="evenodd" clip-rule="evenodd" fill="#F5D020" d="M620.296,1146.926c-2.65-1.438-5.302-2.877-7.952-4.314
			c4.392-9.193,8.784-18.385,13.177-27.578c7.64,3.391,15.327,6.68,22.903,10.209c4.892,2.277,5.755,5.541,4.605,12.561
			c-1.473,9,0.033,17.389,6.838,24.016c7.665,7.465,19.528,6.637,28.881-1.908c2.124-1.939,3.896-4.273,5.774-6.475
			c2.701-3.166,5.918-4.729,9.973-2.922c7.106,3.166,14.149,6.475,21.219,9.723c-4.355,9.189-8.712,18.377-13.067,27.566
			c-3.102-1.115-6.121-2.688-9.32-3.256c-7.399-1.311-13.32,2.309-16.919,9.973c-9.028,19.236-17.99,38.504-26.982,57.758
			c-0.55,1.178-1.131,2.34-1.697,3.508c-1.083-0.406-2.175-0.791-3.247-1.223c-11.97-4.842-23.937-9.689-35.904-14.537
			c-2.502-1.477-5.158-2.582-7.976-3.293c-0.282-0.168-0.563-0.334-0.845-0.498l0.007-0.391
			c4.928-11.299,9.826-22.609,14.794-33.889c4.738-10.756,9.631-21.445,14.295-32.234c2.85-6.588,1.432-12.463-4.317-16.613
			C630.313,1150.061,625.509,1147.913,620.296,1146.926z"/>
		<path fill-rule="evenodd" clip-rule="evenodd" fill="#D4DAEA" d="M618.577,1240.026c11.967,4.848,23.934,9.695,35.903,14.537
			c1.072,0.432,2.164,0.816,3.247,1.223c1.455,0.705,2.909,1.41,4.363,2.115c-0.209,1.941-1.823,2.879-2.992,4.111
			c-7.648,8.076-16.133,15.34-23.265,23.918c-6.13-2.447-12.336-4.723-18.354-7.418c-2.65-1.186-3.716-0.58-4.925,1.838
			c-3.728,7.445-7.686,14.773-11.554,22.146c-6.015-1.932-11.823-4.365-17.477-7.174c0.369-3.383,2.054-6.293,3.372-9.33
			c3.223-7.418,6.463-14.83,9.695-22.244c1.171-2.018,2.342-4.037,3.512-6.055C607.471,1253.067,612.773,1246.286,618.577,1240.026z
			"/>
		<path fill-rule="evenodd" clip-rule="evenodd" fill="#EDC381" d="M625.521,1115.034c-4.393,9.193-8.785,18.385-13.177,27.578
			c-3.438-1.49-7.006-2.742-10.287-4.521c-5.219-2.83-9.4-1.836-13.766,2.014c-12.829,11.311-25.887,22.363-38.876,33.492
			c-7.026,6.02-13.948,6.379-20.784,1.158c0.165-2.139,1.932-3.158,3.225-4.455c19.952-19.996,39.939-39.957,59.895-59.949
			c1.297-1.299,3.042-2.34,3.163-4.49c0.195-0.229,0.408-0.244,0.637-0.051c0.435,0.006,0.867,0.012,1.3,0.018
			c7.463-0.551,13.93,2.609,20.467,5.496C620.063,1112.534,622.786,1113.795,625.521,1115.034z"/>
		<path fill-rule="evenodd" clip-rule="evenodd" fill="#6C4746" d="M670.563,1106.803c-1.27-2.037-1.486-4.279-1.46-6.625
			c0.061-5.666,0.401-11.365-0.06-16.992c-1.029-12.566,8.938-23.576,22.531-24.289c11.303-0.594,22.66-0.15,33.993-0.109
			c3.221,0.012,5.4,1.627,5.441,4.949c0.08,6.525-0.131,13.055-0.221,19.584c-4.251-2.186-8.784-0.602-13.174-0.941
			c-6.889-0.529-11.953,2.607-15.647,8.314c-2.828,4.369-5.544,8.842-9.424,12.42c-4.196,2.07-8.657,2.639-13.298,2.709
			C676.354,1105.87,673.263,1104.85,670.563,1106.803z"/>
		<path fill-rule="evenodd" clip-rule="evenodd" fill="#EDC381" d="M708.483,1368.522c-4.914-14.736-9.899-29.447-14.135-44.398
			c-0.167-0.313-0.333-0.621-0.499-0.932c-0.109-0.592-0.218-1.184-0.326-1.775c1.806-0.08,2.749-1.477,3.858-2.578
			c5.642-5.613,11.265-11.244,16.885-16.879c1.232-1.234,2.386-2.584,4.397-2.344c4.407,14.842,8.814,29.684,13.221,44.525
			c0.196,1.979-1.021,3.203-2.286,4.459c-5.877,5.838-11.719,11.715-17.588,17.561
			C710.996,1367.172,710.115,1368.42,708.483,1368.522z"/>
		<path fill-rule="evenodd" clip-rule="evenodd" fill="#EDC381" d="M519.769,1320.586c-12.355-3.779-24.748-7.451-36.698-12.422
			c0.438-4.529,2.466-8.566,3.957-12.771c0.525-1.52,1.05-3.039,1.575-4.561c0.24-0.293,0.481-0.586,0.722-0.879l-0.046,0.023
			c2.171-0.061,3.079-1.947,4.502-3.094c1.98-1.598,3.151-4.229,6-4.719c14.978,4.537,29.836,9.43,44.528,14.822
			c-0.07,1.793-1.447,2.736-2.543,3.838c-5.572,5.6-11.171,11.17-16.743,16.768c-1.098,1.102-2.465,2.055-2.536,3.844
			c-0.588-0.107-1.178-0.215-1.767-0.322C520.403,1320.938,520.085,1320.762,519.769,1320.586z"/>
		<path fill-rule="evenodd" clip-rule="evenodd" fill="#B99A1A" d="M620.296,1146.926c5.213,0.986,10.017,3.135,14.238,6.182
			c5.749,4.15,7.167,10.025,4.317,16.613c-4.664,10.789-9.557,21.479-14.295,32.234c-4.968,11.279-9.866,22.59-14.794,33.889
			c-0.292,0.061-0.581,0.125-0.873,0.188c-0.252-0.156-0.524-0.215-0.817-0.17c-4.488-2.053-8.976-4.104-13.462-6.156
			c9.305-20.098,18.625-40.188,27.896-60.301c1.253-2.721,2.657-5.369,3.024-8.471
			C626.197,1155.301,624.132,1150.813,620.296,1146.926z"/>
		<path fill-rule="evenodd" clip-rule="evenodd" fill="#EDC381" d="M692.543,1103.114c3.88-3.578,6.596-8.051,9.424-12.42
			c3.694-5.707,8.759-8.844,15.647-8.314c4.39,0.34,8.923-1.244,13.174,0.941c-0.019,4.865-0.035,9.73-0.053,14.596
			c-0.668,0.818-0.662,1.74-0.422,2.701c-1.44,12.232-7.767,20.783-19.198,25.492
			C701.111,1121.524,694.928,1113.852,692.543,1103.114z"/>
		<path fill-rule="evenodd" clip-rule="evenodd" fill="#EDC381" d="M594.913,1105.86c-0.121,2.15-1.866,3.191-3.163,4.49
			c-19.955,19.992-39.942,39.953-59.895,59.949c-1.293,1.297-3.06,2.316-3.225,4.455c-7.88-6.65-7.67-17.148,0.694-24.418
			c10.736-9.334,21.585-18.537,32.437-27.736c5.298-4.492,10.203-9.52,16.498-12.715
			C583.486,1107.233,588.938,1105.446,594.913,1105.86z"/>
		<path fill-rule="evenodd" clip-rule="evenodd" fill="#EDC381" d="M796.458,1123.461c5.545-0.553,9.946,1.414,13.173,5.975
			c-2.144,0.141-3.201,1.867-4.506,3.17c-20.336,20.301-40.643,40.631-60.981,60.926c-1.297,1.295-2.318,3.076-4.497,3.15
			c-4.272,0.209-8.396-0.311-12.177-2.498c1.131-1.307,2.188-2.686,3.404-3.906c20.769-20.799,41.563-41.572,62.325-62.377
			C794.494,1126.602,796.25,1125.583,796.458,1123.461z"/>
		<path fill-rule="evenodd" clip-rule="evenodd" fill="#EDC381" d="M739.646,1196.682c2.179-0.074,3.2-1.855,4.497-3.15
			c20.339-20.295,40.646-40.625,60.981-60.926c1.305-1.303,2.362-3.029,4.506-3.17c4.632,6.406,4.567,14.146-1.271,19.727
			c-14.496,13.854-28.845,27.91-44.394,40.592C757.062,1195.387,748.748,1197.862,739.646,1196.682z"/>
		<path fill-rule="evenodd" clip-rule="evenodd" fill="#D4DAEA" d="M737.139,1420.954c-7.303,0.432-14.604,0.594-21.903-0.078
			c0.077-10.17,0.154-20.338,0.231-30.508c10.136-0.047,20.271-0.092,30.405-0.139c5.055,0.695,10.108,1.396,14.014,5.193
			c-0.115,1.951-1.609,2.99-2.813,4.199c-5.697,5.727-11.428,11.418-17.118,17.15
			C738.763,1417.975,737.198,1418.969,737.139,1420.954z"/>
		<path fill-rule="evenodd" clip-rule="evenodd" fill="#EDC381" d="M796.458,1123.461c-0.208,2.121-1.964,3.141-3.259,4.439
			c-20.763,20.805-41.557,41.578-62.325,62.377c-1.217,1.221-2.273,2.6-3.404,3.906c-5.222-1.475-9.921-4.164-14.823-6.381
			c4.355-9.189,8.712-18.377,13.067-27.566c3.552,1.578,7.146,3.07,10.647,4.752c4.572,2.193,8.417,1.639,12.218-1.951
			c12.206-11.525,24.585-22.867,36.916-34.258C788.602,1125.909,791.863,1123.293,796.458,1123.461z"/>
		<path fill-rule="evenodd" clip-rule="evenodd" fill="#EDC381" d="M689.018,1309.254c-4.763-4.318-11.093-5.432-16.646-8.137
			c4.439-11.076,8.878-22.154,13.316-33.23c9.65,3.506,19.133,7.289,25.572,15.938c0.586,0.787,1.02,1.689,1.523,2.539
			c-6.78,7.854-14.459,14.826-21.796,22.135C690.533,1308.952,689.684,1309.012,689.018,1309.254z"/>
		<path fill-rule="evenodd" clip-rule="evenodd" fill="#D4DAEA" d="M685.688,1267.887c-4.438,11.076-8.877,22.154-13.316,33.23
			c-8.164-3.213-16.37-6.322-24.264-10.18c0.059-1.258,0.793-2.135,1.631-2.973c7.495-7.486,14.995-14.967,22.461-22.482
			c1.093-1.1,2.286-1.746,3.846-1.652C679.431,1264.778,682.646,1266.125,685.688,1267.887z"/>
		<path fill-rule="evenodd" clip-rule="evenodd" fill="#EDC381" d="M745.872,1390.229c-10.135,0.047-20.27,0.092-30.405,0.139
			c-1.094-3.154-2.456-6.229-2.875-9.584c1.965-0.096,2.974-1.635,4.194-2.822c6.511-6.334,13.004-12.689,19.504-19.037
			C740.007,1369.198,742.823,1379.749,745.872,1390.229z"/>
		<path fill-rule="evenodd" clip-rule="evenodd" fill="#D4DAEA" d="M488.603,1290.833c-0.525,1.521-1.05,3.041-1.57,4.559
			c-1.108-0.236-1.964,0.225-2.727,0.977c-9.064,8.928-18.133,17.852-27.2,26.779c-1.281,0.113-2.51,0.018-3.537-0.887
			c0.486-1.957,1.104-3.896,0.867-5.957c-0.449-3.887,1.051-7.412,3.513-9.938c9.466-9.715,18.76-19.613,28.909-28.641
			c2.298,0.193,4.313,1.211,6.347,2.182c-2.024,3.078-3.02,6.555-3.926,10.07l0.046-0.023
			C489.084,1290.247,488.843,1290.54,488.603,1290.833z"/>
		<path fill-rule="evenodd" clip-rule="evenodd" fill="#ADB6CD" d="M608.072,1235.862c0.293-0.045,0.565,0.014,0.817,0.17
			c-2.144,7.539-6.744,14.082-8.785,21.662c-1.17,2.018-2.341,4.037-3.512,6.057c-0.651,0.279-1.464,0.395-1.931,0.857
			c-7.856,7.799-15.679,15.631-23.466,23.498c-0.461,0.465-0.555,1.291-0.819,1.949c-1.11-0.334-2.22-0.67-3.329-1.006
			c3.787-9.525,8.194-18.764,12.918-27.857c2.021,0.016,3.016-1.574,4.221-2.771c6.582-6.539,13.123-13.121,19.702-19.664
			C605.1,1237.551,606.115,1236.012,608.072,1235.862z"/>
		<path fill-rule="evenodd" clip-rule="evenodd" fill="#EBAA71" d="M692.543,1103.114c2.385,10.738,8.568,18.41,18.572,22.996
			c-16.321,7.078-35.581-2.09-40.553-19.307c2.7-1.953,5.791-0.934,8.683-0.98C683.886,1105.752,688.347,1105.184,692.543,1103.114z
			"/>
		<path fill-rule="evenodd" clip-rule="evenodd" fill="#D4DAEA" d="M676.046,1263.831c-1.56-0.094-2.753,0.553-3.846,1.652
			c-7.466,7.516-14.966,14.996-22.461,22.482c-0.838,0.838-1.572,1.715-1.631,2.973c-4.276-1.217-8.299-3.055-12.275-5.008
			c7.133-8.578,15.617-15.842,23.266-23.918c1.169-1.232,2.783-2.17,2.992-4.111
			C666.743,1259.877,671.395,1261.854,676.046,1263.831z"/>
		<path fill-rule="evenodd" clip-rule="evenodd" fill="#EDC381" d="M689.018,1309.254c0.666-0.242,1.516-0.303,1.971-0.756
			c7.337-7.309,15.016-14.281,21.796-22.135c3.244,3.848,4.675,8.5,5.88,13.252c-2.012-0.24-3.165,1.109-4.397,2.344
			c-5.62,5.635-11.243,11.266-16.885,16.879c-1.109,1.102-2.053,2.498-3.858,2.578
			C692.021,1317.362,690.52,1313.309,689.018,1309.254z"/>
		<path fill-rule="evenodd" clip-rule="evenodd" fill="#EDC381" d="M522.486,1321.436c0.071-1.789,1.438-2.742,2.536-3.844
			c5.572-5.598,11.171-11.168,16.743-16.768c1.096-1.102,2.473-2.045,2.543-3.838c4.084,1.172,8.167,2.342,12.251,3.512
			c-0.007,0.277-0.012,0.553-0.013,0.828c-0.101,1.799-1.473,2.762-2.582,3.877c-5.526,5.551-11.081,11.072-16.602,16.629
			c-1.103,1.109-2.527,2.031-2.645,3.836C530.561,1324.493,526.38,1323.381,522.486,1321.436z"/>
		<path fill-rule="evenodd" clip-rule="evenodd" fill="#EDC381" d="M736.29,1358.924c-6.5,6.348-12.993,12.703-19.504,19.037
			c-1.221,1.188-2.229,2.727-4.194,2.822c-1.896-3.912-2.936-8.109-4.108-12.262c1.632-0.102,2.513-1.35,3.527-2.361
			c5.869-5.846,11.711-11.723,17.588-17.561c1.265-1.256,2.482-2.48,2.286-4.459C733.766,1348.946,735.281,1353.86,736.29,1358.924z
			"/>
		<path fill-rule="evenodd" clip-rule="evenodd" fill="#D4DAEA" d="M737.139,1420.954c0.06-1.984,1.624-2.979,2.816-4.182
			c5.69-5.732,11.421-11.424,17.118-17.15c1.203-1.209,2.697-2.248,2.813-4.199c3.974,2.537,6.537,6.092,7.708,10.654
			c-1.57,1.17-3.502,2.063-4.64,3.559c-2.962,3.902-8.253,5.92-9.255,11.385C748.177,1421.331,742.656,1421.413,737.139,1420.954z"
			/>
		<path fill-rule="evenodd" clip-rule="evenodd" fill="#ADB6CD" d="M608.072,1235.862c-1.957,0.15-2.973,1.689-4.184,2.895
			c-6.579,6.543-13.12,13.125-19.702,19.664c-1.205,1.197-2.2,2.787-4.221,2.771c4.463-10.689,9.465-21.131,14.645-31.486
			C599.097,1231.758,603.584,1233.809,608.072,1235.862z"/>
		<path fill-rule="evenodd" clip-rule="evenodd" fill="#EBAA71" d="M556.547,1301.327c0.001-0.275,0.006-0.551,0.013-0.828
			c6.799-0.789,7.688-6.994,10.488-11.449c1.109,0.336,2.219,0.672,3.33,1.006c4.098,1.799,8.194,3.598,12.29,5.396
			c-4.225,7.205-9.798,9.932-16.915,8.215C562.676,1302.922,559.848,1301.198,556.547,1301.327z"/>
		<path fill-rule="evenodd" clip-rule="evenodd" fill="#D4DAEA" d="M753.699,1421.02c1.002-5.465,6.293-7.482,9.255-11.385
			c1.138-1.496,3.069-2.389,4.64-3.559c2.233,4.742,1.467,9.838,1.761,14.811c-0.313,0.076-0.499,0.271-0.557,0.59
			C763.764,1421.325,758.731,1421.172,753.699,1421.02z"/>
		<path fill-rule="evenodd" clip-rule="evenodd" fill="#4F4E5F" d="M768.798,1421.477c0.058-0.318,0.243-0.514,0.557-0.59"/>
		<path fill-rule="evenodd" clip-rule="evenodd" fill="#EDC381" d="M489.278,1289.977c0.906-3.516,1.901-6.992,3.926-10.07
			c2.257,0.563,4.556,1.006,6.576,2.258c-2.849,0.49-4.02,3.121-6,4.719C492.357,1288.03,491.449,1289.917,489.278,1289.977z"/>
		<path fill-rule="evenodd" clip-rule="evenodd" fill="#E2B97A" d="M596.85,1105.827c-0.433-0.006-0.865-0.012-1.3-0.018
			C595.987,1105.393,596.422,1105.43,596.85,1105.827z"/>
		<path fill-rule="evenodd" clip-rule="evenodd" fill="#EDC381" d="M556.547,1301.327c3.301-0.129,6.129,1.596,9.206,2.34
			c7.117,1.717,12.69-1.01,16.915-8.215c0.283-0.064,0.568-0.107,0.857-0.129c5.653,2.809,11.462,5.242,17.477,7.174
			c-4.161,8.971-8.473,17.807-17.124,23.537c-9.145,6.059-19.037,8.248-29.79,5.857c-6.637-1.477-13.014-3.832-19.369-6.223
			c0.117-1.805,1.542-2.727,2.645-3.836c5.521-5.557,11.075-11.078,16.602-16.629
			C555.074,1304.088,556.446,1303.125,556.547,1301.327z"/>
		<path fill-rule="evenodd" clip-rule="evenodd" fill="#D4DAEA" d="M457.105,1323.147c9.067-8.928,18.136-17.852,27.2-26.779
			c0.763-0.752,1.618-1.213,2.727-0.977c-1.496,4.207-3.523,8.244-3.962,12.773c-2.374,3.744-4.235,7.861-7.995,10.578
			C469.669,1322.647,463.888,1324.911,457.105,1323.147z"/>
		<path fill-rule="evenodd" clip-rule="evenodd" fill="#E2B97A" d="M693.85,1323.192c0.166,0.311,0.332,0.619,0.499,0.932
			C694.182,1323.811,694.016,1323.502,693.85,1323.192z"/>
		<path fill-rule="evenodd" clip-rule="evenodd" fill="#E2B97A" d="M519.769,1320.586c0.316,0.176,0.635,0.352,0.951,0.527
			C520.403,1320.938,520.085,1320.762,519.769,1320.586z"/>
		<path fill-rule="evenodd" clip-rule="evenodd" fill="#D4DAEA" d="M600.104,1257.694c2.041-7.58,6.642-14.123,8.785-21.662
			c0.292-0.063,0.581-0.127,0.873-0.188c0,0-0.007,0.391-0.007,0.389c0.281,0.166,0.562,0.332,0.845,0.5
			c2.817,0.711,5.474,1.816,7.976,3.293C612.773,1246.286,607.471,1253.067,600.104,1257.694z"/>
		<path fill-rule="evenodd" clip-rule="evenodd" fill="#ADB6CD" d="M610.601,1236.733c-0.283-0.168-0.563-0.334-0.845-0.5
			C610.037,1236.399,610.318,1236.565,610.601,1236.733z"/>
		<path fill-rule="evenodd" clip-rule="evenodd" fill="#ADB6CD" d="M583.525,1295.323c-0.289,0.021-0.574,0.064-0.857,0.129
			c-4.096-1.799-8.192-3.598-12.29-5.396c0.264-0.658,0.357-1.484,0.818-1.949c7.787-7.867,15.609-15.699,23.466-23.498
			c0.467-0.463,1.279-0.578,1.931-0.857c-3.232,7.412-6.473,14.824-9.695,22.242C585.579,1289.03,583.895,1291.94,583.525,1295.323z
			"/>
		<path fill-rule="evenodd" clip-rule="evenodd" fill="#E2B97A" d="M488.603,1290.833c0.24-0.293,0.481-0.586,0.722-0.879
			C489.084,1290.247,488.843,1290.54,488.603,1290.833z"/>
	</g>
	<path opacity="0.3" fill-rule="evenodd" clip-rule="evenodd" fill="#D4DAEA" d="M490.162,1160.047c0,4.189-3.396,7.586-7.585,7.586
		h-50.941c-4.189,0-7.585-3.396-7.585-7.586l0,0c0-4.188,3.396-7.584,7.585-7.584h50.941
		C486.766,1152.463,490.162,1155.86,490.162,1160.047L490.162,1160.047z"/>
	<path opacity="0.3" fill-rule="evenodd" clip-rule="evenodd" fill="#D4DAEA" d="M669.985,1408.342c0,4.191-3.396,7.586-7.585,7.586
		h-50.941c-4.189,0-7.585-3.395-7.585-7.586l0,0c0-4.188,3.396-7.584,7.585-7.584H662.4
		C666.59,1400.758,669.985,1404.155,669.985,1408.342L669.985,1408.342z"/>
	<path opacity="0.3" fill-rule="evenodd" clip-rule="evenodd" fill="#D4DAEA" d="M695.146,1026.012c0,4.191-3.396,7.586-7.585,7.586
		H636.62c-4.189,0-7.585-3.395-7.585-7.586l0,0c0-4.188,3.396-7.584,7.585-7.584h50.941
		C691.751,1018.428,695.146,1021.825,695.146,1026.012L695.146,1026.012z"/>
	<path opacity="0.3" fill-rule="evenodd" clip-rule="evenodd" fill="#D4DAEA" d="M631.013,1382.502c0,4.189-3.396,7.586-7.585,7.586
		h-50.941c-4.19,0-7.585-3.396-7.585-7.586l0,0c0-4.189,3.395-7.586,7.585-7.586h50.941
		C627.616,1374.917,631.013,1378.313,631.013,1382.502L631.013,1382.502z"/>
	<path opacity="0.3" fill-rule="evenodd" clip-rule="evenodd" fill="#D4DAEA" d="M407.718,1332.84c0,4.188-3.396,7.584-7.585,7.584
		h-32.379c-4.189,0-7.586-3.396-7.586-7.584l0,0c0-4.189,3.396-7.586,7.586-7.586h32.379
		C404.321,1325.254,407.718,1328.651,407.718,1332.84L407.718,1332.84z"/>
	<path opacity="0.3" fill-rule="evenodd" clip-rule="evenodd" fill="#D4DAEA" d="M443.491,1134.145c0,4.188-3.396,7.584-7.585,7.584
		h-32.379c-4.19,0-7.586-3.396-7.586-7.584l0,0c0-4.189,3.396-7.586,7.586-7.586h32.379
		C440.095,1126.559,443.491,1129.956,443.491,1134.145L443.491,1134.145z"/>
</g>
</svg>
